<?xml version="1.0" encoding="UTF-8"?>
<svg id="background" xmlns="http://www.w3.org/2000/svg" xmlns:xlink="http://www.w3.org/1999/xlink" viewBox="0 0 600 400">
  <defs>
    <style>
      .cls-1 {
        fill: #666;
      }

      .cls-1, .cls-2 {
        stroke-width: 0px;
      }

      .cls-2 {
        fill: url(#linear-gradient);
      }
    </style>
    <linearGradient id="linear-gradient" x1="-18.4" y1="383.83" x2="604.8" y2="24.02" gradientUnits="userSpaceOnUse">
      <stop offset="0" stop-color="#0d0d0d"/>
      <stop offset=".02" stop-color="#0e0d0d"/>
      <stop offset=".35" stop-color="#1d1a1b"/>
      <stop offset=".62" stop-color="#231f20"/>
      <stop offset=".64" stop-color="#252122"/>
      <stop offset=".82" stop-color="#2f2e2e"/>
      <stop offset=".99" stop-color="#333"/>
    </linearGradient>
  </defs>
  <rect class="cls-2" width="600" height="400"/>
  <g>
    <g>
      <path class="cls-1" d="m171.5,252.1c-1.71-2.3-4.96-2.77-7.25-1.07-2.16,1.6-2.69,4.56-1.34,6.81L0,375.28v1.24l163.51-117.87c.8.89,1.86,1.49,3.07,1.67.25.04.51.06.77.06,1.1,0,2.17-.36,3.08-1.03,2.29-1.7,2.77-4.95,1.07-7.25Zm-1.67,6.45c-.9.67-2,.94-3.11.78-1.1-.16-2.08-.75-2.74-1.64-1.38-1.86-.99-4.48.86-5.86.75-.56,1.62-.82,2.49-.82,1.28,0,2.55.58,3.37,1.69,1.37,1.85.98,4.48-.87,5.85Z"/>
      <path class="cls-1" d="m138.42,260.6c-.82-1.11-2.03-1.84-3.4-2.04s-2.74.14-3.85.97c-1.11.82-1.84,2.03-2.04,3.4-.18,1.2.09,2.39.7,3.42L0,359.64v1.22l130.41-93.7c1.01,1.12,2.43,1.72,3.86,1.72,1.07,0,2.15-.34,3.08-1.02,1.11-.83,1.84-2.04,2.04-3.41.2-1.37-.14-2.74-.97-3.85Zm-.02,3.7c-.16,1.11-.75,2.09-1.65,2.75-1.85,1.38-4.47.99-5.85-.86-.67-.9-.94-2-.78-3.11.16-1.11.75-2.08,1.65-2.75.73-.54,1.59-.82,2.48-.82.21,0,.42,0,.62.04,1.11.16,2.08.75,2.75,1.65.67.89.94,2,.78,3.1Z"/>
      <path class="cls-1" d="m129.65,331.31c-1.7-2.3-4.96-2.78-7.25-1.07-2.16,1.6-2.69,4.56-1.34,6.81l-88.21,62.95h1.73l87.06-62.13c1.01,1.12,2.42,1.71,3.85,1.71,1.08,0,2.16-.33,3.09-1.02,2.29-1.7,2.77-4.95,1.07-7.25Zm-1.67,6.45c-1.85,1.38-4.48.99-5.85-.86-1.38-1.86-.99-4.48.86-5.86.75-.56,1.62-.82,2.49-.82,1.28,0,2.55.58,3.37,1.69,1.37,1.85.98,4.48-.87,5.85Z"/>
      <path class="cls-1" d="m163.86,377.39c-1.7-2.3-4.96-2.78-7.25-1.07-1.11.82-1.84,2.03-2.04,3.4-.18,1.2.09,2.39.7,3.41l-23.64,16.87h1.74l22.5-16.06c.8.89,1.86,1.49,3.07,1.67.26.04.51.06.77.06,1.1,0,2.17-.35,3.08-1.03,1.11-.82,1.83-2.03,2.04-3.4.2-1.37-.14-2.74-.97-3.85Zm-.02,3.7c-.17,1.11-.75,2.09-1.65,2.75-.9.67-2,.95-3.1.78-1.11-.16-2.09-.75-2.75-1.64-.67-.9-.95-2-.78-3.11.16-1.11.75-2.08,1.64-2.75.75-.55,1.63-.82,2.49-.82,1.28,0,2.55.58,3.37,1.69.66.89.94,2,.78,3.1Z"/>
      <path class="cls-1" d="m186.66,313.78c-.83-1.11-2.04-1.83-3.41-2.03-1.36-.21-2.73.13-3.84.96-2.16,1.6-2.69,4.56-1.34,6.82l-111.91,80.47h1.72l110.79-79.67c.8.9,1.86,1.5,3.07,1.67.26.04.51.06.77.06,1.1,0,2.17-.35,3.08-1.02,1.11-.83,1.83-2.04,2.04-3.41.2-1.37-.14-2.73-.97-3.85Zm-.02,3.71c-.17,1.1-.75,2.08-1.65,2.74-.9.67-2,.95-3.11.78-1.1-.16-2.08-.74-2.74-1.64-1.38-1.85-.99-4.48.86-5.86.73-.54,1.6-.82,2.49-.82.2,0,.41.01.62.04,1.1.17,2.08.75,2.75,1.65.66.9.94,2,.78,3.11Z"/>
      <path class="cls-1" d="m70.33,251.41c-.83-1.11-2.03-1.84-3.4-2.04s-2.74.14-3.85.97c-1.12.82-1.84,2.03-2.04,3.4-.18,1.2.08,2.39.7,3.41L0,301.21v1.24l62.32-44.48c1.01,1.12,2.42,1.71,3.85,1.71,1.08,0,2.16-.33,3.09-1.02,1.11-.82,1.83-2.03,2.04-3.4.2-1.37-.14-2.74-.97-3.85Zm-.02,3.7c-.17,1.11-.75,2.08-1.65,2.75-1.85,1.38-4.48.99-5.85-.86-.67-.9-.95-2.01-.78-3.11.16-1.11.75-2.08,1.64-2.75.73-.54,1.6-.83,2.49-.83.21,0,.41.02.62.05,1.1.16,2.08.75,2.75,1.65.66.89.94,2,.78,3.1Z"/>
      <path class="cls-1" d="m32.91,178.59c-.82-1.11-2.03-1.83-3.4-2.03-1.37-.21-2.74.14-3.85.96-1.11.83-1.84,2.04-2.04,3.41-.18,1.2.09,2.38.7,3.41L0,201.7v1.22l24.9-17.77c1.01,1.12,2.42,1.72,3.86,1.72,1.07,0,2.15-.33,3.08-1.02,1.11-.83,1.84-2.04,2.04-3.41s-.14-2.73-.97-3.85Zm-.02,3.71c-.16,1.1-.75,2.08-1.65,2.75-1.85,1.37-4.48.98-5.85-.87-.67-.9-.94-2-.78-3.11.16-1.1.75-2.08,1.64-2.74.73-.55,1.6-.83,2.49-.83.21,0,.41.01.62.05,1.11.16,2.08.74,2.75,1.64.67.9.94,2,.78,3.11Z"/>
      <path class="cls-1" d="m103.6,201.91c-.82-1.11-2.03-1.84-3.4-2.04s-2.74.14-3.85.97c-1.11.82-1.84,2.03-2.04,3.4-.18,1.2.09,2.39.7,3.41L0,275.97v1.24l95.59-68.74c1.01,1.12,2.42,1.71,3.86,1.71,1.07,0,2.15-.33,3.08-1.02,1.11-.82,1.84-2.03,2.04-3.4s-.14-2.74-.97-3.85Zm-.02,3.7c-.16,1.11-.75,2.08-1.65,2.75-1.85,1.38-4.48.99-5.85-.86-.67-.9-.95-2.01-.78-3.11.16-1.11.75-2.08,1.64-2.75.73-.54,1.6-.83,2.49-.83.21,0,.41.02.62.05,1.11.16,2.08.75,2.75,1.64.67.9.94,2.01.78,3.11Z"/>
      <path class="cls-1" d="m109.09,175.9c-1.71-2.3-4.96-2.78-7.26-1.08-2.15,1.6-2.68,4.56-1.33,6.82L0,254.06v1.23l101.08-72.83c1.01,1.12,2.42,1.71,3.85,1.71,1.08,0,2.16-.33,3.09-1.02,2.29-1.7,2.77-4.96,1.07-7.25Zm-1.67,6.45c-1.85,1.37-4.48.98-5.85-.87-1.38-1.85-.99-4.48.86-5.85,1.85-1.38,4.48-.99,5.86.86,1.37,1.85.98,4.48-.87,5.86Z"/>
      <path class="cls-1" d="m160.07,289.76c-1.7-2.3-4.96-2.78-7.25-1.07-1.11.82-1.84,2.03-2.04,3.4h0s-11.67-.56-11.67-.56L0,391.38v1.24l139.41-100.07,11.32.55c.05,1.02.39,2,1.02,2.84,1.01,1.37,2.58,2.09,4.16,2.09,1.08,0,2.16-.33,3.09-1.02,2.29-1.7,2.78-4.95,1.07-7.25Zm-1.67,6.45c-1.85,1.38-4.48.99-5.85-.86-.67-.9-.95-2.01-.78-3.11.16-1.11.75-2.08,1.64-2.75.75-.56,1.63-.82,2.49-.82,1.28,0,2.55.58,3.37,1.69,1.37,1.85.99,4.48-.87,5.85Z"/>
      <path class="cls-1" d="m199.46,283.86c-.83-1.11-2.04-1.84-3.41-2.04-1.37-.2-2.74.14-3.85.97-2.16,1.6-2.69,4.56-1.33,6.82l-39.91,29.63-24.37-3.6-.2-.03L8.44,400h1.72l116.48-83.34,24.58,3.63,40.23-29.86c1.01,1.11,2.42,1.7,3.85,1.7,1.07,0,2.16-.33,3.08-1.01,2.3-1.71,2.78-4.96,1.08-7.26Zm-1.67,6.45c-1.85,1.38-4.48.99-5.86-.86-1.37-1.86-.99-4.48.87-5.86.73-.54,1.59-.82,2.48-.82.21,0,.42.01.62.04,1.11.16,2.09.75,2.75,1.65,1.38,1.85.99,4.48-.86,5.85Z"/>
      <path class="cls-1" d="m229.48,324.3c-.83-1.11-2.04-1.84-3.41-2.04-1.37-.2-2.73.14-3.85.97-2.15,1.6-2.68,4.56-1.33,6.82l-39.91,29.63-24.37-3.6-.2-.03-61.43,43.95h1.72l59.96-42.9,24.59,3.63,40.22-29.87c1.01,1.12,2.42,1.71,3.85,1.71,1.08,0,2.16-.33,3.09-1.02,2.29-1.7,2.77-4.96,1.07-7.25Zm-1.67,6.45c-1.85,1.38-4.48.99-5.86-.86-1.37-1.86-.98-4.48.87-5.86.73-.54,1.59-.83,2.49-.83.2,0,.41.02.62.05,1.1.16,2.08.75,2.74,1.65,1.38,1.85.99,4.47-.86,5.85Z"/>
      <path class="cls-1" d="m123.74,240.83c-1.7-2.3-4.96-2.78-7.25-1.07-1.11.82-1.84,2.03-2.04,3.4s.14,2.74.97,3.85c.63.86,1.49,1.46,2.43,1.79l-2.75,10.99L0,342.42v1.23l115.83-83.15.15-.11,2.84-11.35c.25.04.51.06.77.06,1.07,0,2.16-.33,3.08-1.02,2.3-1.7,2.78-4.96,1.07-7.25Zm-1.66,6.45c-1.86,1.38-4.48.99-5.86-.86-.67-.9-.94-2.01-.78-3.11.16-1.11.75-2.08,1.65-2.75.74-.56,1.62-.82,2.49-.82,1.28,0,2.54.58,3.36,1.68,1.38,1.86.99,4.48-.86,5.86Z"/>
      <path class="cls-1" d="m66.11,173.59c-1.71-2.29-4.96-2.77-7.26-1.07-1.11.83-1.83,2.04-2.04,3.41-.2,1.37.14,2.73.97,3.85.62.84,1.47,1.45,2.43,1.79l-2.75,10.99L0,233.81v1.23l58.2-41.78.14-.1,2.84-11.35c.26.04.52.06.77.06,1.11,0,2.18-.35,3.08-1.02,2.3-1.71,2.78-4.96,1.08-7.26Zm-1.67,6.46c-.9.66-2,.94-3.11.78-1.1-.17-2.08-.75-2.75-1.65-.66-.9-.94-2-.78-3.11.17-1.1.75-2.08,1.65-2.74.75-.56,1.62-.83,2.49-.83,1.28,0,2.54.59,3.36,1.69,1.38,1.85.99,4.48-.86,5.86Z"/>
      <path class="cls-1" d="m138.01,201.1c-.82-1.11-2.03-1.83-3.4-2.04-1.36-.2-2.74.14-3.85.97-1.11.83-1.84,2.03-2.04,3.4-.18,1.21.09,2.4.71,3.42l-39.3,29.18-4.28,25.66L0,323.11v1.23l86.6-61.96.16-.12,4.29-25.67,38.96-28.92c1.01,1.11,2.42,1.71,3.85,1.71,1.07,0,2.15-.34,3.08-1.02,1.11-.83,1.84-2.04,2.04-3.41.2-1.37-.14-2.74-.97-3.85Zm-.02,3.71c-.16,1.1-.75,2.08-1.64,2.74-1.86,1.38-4.48.99-5.86-.86-.67-.9-.94-2-.78-3.11.16-1.1.75-2.08,1.65-2.75.73-.54,1.59-.82,2.48-.82.21,0,.42,0,.62.04,1.11.17,2.08.75,2.75,1.65.67.9.94,2,.78,3.11Z"/>
      <path class="cls-1" d="m171.5,252.1c-1.71-2.3-4.96-2.77-7.25-1.07-2.16,1.6-2.69,4.56-1.34,6.81L0,375.28v1.24l163.51-117.87c.8.89,1.86,1.49,3.07,1.67.25.04.51.06.77.06,1.1,0,2.17-.36,3.08-1.03,2.29-1.7,2.77-4.95,1.07-7.25Zm-1.67,6.45c-.9.67-2,.94-3.11.78-1.1-.16-2.08-.75-2.74-1.64-1.38-1.86-.99-4.48.86-5.86.75-.56,1.62-.82,2.49-.82,1.28,0,2.55.58,3.37,1.69,1.37,1.85.98,4.48-.87,5.85Z"/>
      <path class="cls-1" d="m138.42,260.6c-.82-1.11-2.03-1.84-3.4-2.04s-2.74.14-3.85.97c-1.11.82-1.84,2.03-2.04,3.4-.18,1.2.09,2.39.7,3.42L0,359.64v1.22l130.41-93.7c1.01,1.12,2.43,1.72,3.86,1.72,1.07,0,2.15-.34,3.08-1.02,1.11-.83,1.84-2.04,2.04-3.41.2-1.37-.14-2.74-.97-3.85Zm-.02,3.7c-.16,1.11-.75,2.09-1.65,2.75-1.85,1.38-4.47.99-5.85-.86-.67-.9-.94-2-.78-3.11.16-1.11.75-2.08,1.65-2.75.73-.54,1.59-.82,2.48-.82.21,0,.42,0,.62.04,1.11.16,2.08.75,2.75,1.65.67.89.94,2,.78,3.1Z"/>
      <path class="cls-1" d="m129.65,331.31c-1.7-2.3-4.96-2.78-7.25-1.07-2.16,1.6-2.69,4.56-1.34,6.81l-88.21,62.95h1.73l87.06-62.13c1.01,1.12,2.42,1.71,3.85,1.71,1.08,0,2.16-.33,3.09-1.02,2.29-1.7,2.77-4.95,1.07-7.25Zm-1.67,6.45c-1.85,1.38-4.48.99-5.85-.86-1.38-1.86-.99-4.48.86-5.86.75-.56,1.62-.82,2.49-.82,1.28,0,2.55.58,3.37,1.69,1.37,1.85.98,4.48-.87,5.85Z"/>
      <path class="cls-1" d="m163.86,377.39c-1.7-2.3-4.96-2.78-7.25-1.07-1.11.82-1.84,2.03-2.04,3.4-.18,1.2.09,2.39.7,3.41l-23.64,16.87h1.74l22.5-16.06c.8.89,1.86,1.49,3.07,1.67.26.04.51.06.77.06,1.1,0,2.17-.35,3.08-1.03,1.11-.82,1.83-2.03,2.04-3.4.2-1.37-.14-2.74-.97-3.85Zm-.02,3.7c-.17,1.11-.75,2.09-1.65,2.75-.9.67-2,.95-3.1.78-1.11-.16-2.09-.75-2.75-1.64-.67-.9-.95-2-.78-3.11.16-1.11.75-2.08,1.64-2.75.75-.55,1.63-.82,2.49-.82,1.28,0,2.55.58,3.37,1.69.66.89.94,2,.78,3.1Z"/>
      <path class="cls-1" d="m186.66,313.78c-.83-1.11-2.04-1.83-3.41-2.03-1.36-.21-2.73.13-3.84.96-2.16,1.6-2.69,4.56-1.34,6.82l-111.91,80.47h1.72l110.79-79.67c.8.9,1.86,1.5,3.07,1.67.26.04.51.06.77.06,1.1,0,2.17-.35,3.08-1.02,1.11-.83,1.83-2.04,2.04-3.41.2-1.37-.14-2.73-.97-3.85Zm-.02,3.71c-.17,1.1-.75,2.08-1.65,2.74-.9.67-2,.95-3.11.78-1.1-.16-2.08-.74-2.74-1.64-1.38-1.85-.99-4.48.86-5.86.73-.54,1.6-.82,2.49-.82.2,0,.41.01.62.04,1.1.17,2.08.75,2.75,1.65.66.9.94,2,.78,3.11Z"/>
      <path class="cls-1" d="m70.33,251.41c-.83-1.11-2.03-1.84-3.4-2.04s-2.74.14-3.85.97c-1.12.82-1.84,2.03-2.04,3.4-.18,1.2.08,2.39.7,3.41L0,301.21v1.24l62.32-44.48c1.01,1.12,2.42,1.71,3.85,1.71,1.08,0,2.16-.33,3.09-1.02,1.11-.82,1.83-2.03,2.04-3.4.2-1.37-.14-2.74-.97-3.85Zm-.02,3.7c-.17,1.11-.75,2.08-1.65,2.75-1.85,1.38-4.48.99-5.85-.86-.67-.9-.95-2.01-.78-3.11.16-1.11.75-2.08,1.64-2.75.73-.54,1.6-.83,2.49-.83.21,0,.41.02.62.05,1.1.16,2.08.75,2.75,1.65.66.89.94,2,.78,3.1Z"/>
      <path class="cls-1" d="m32.91,178.59c-.82-1.11-2.03-1.83-3.4-2.03-1.37-.21-2.74.14-3.85.96-1.11.83-1.84,2.04-2.04,3.41-.18,1.2.09,2.38.7,3.41L0,201.7v1.22l24.9-17.77c1.01,1.12,2.42,1.72,3.86,1.72,1.07,0,2.15-.33,3.08-1.02,1.11-.83,1.84-2.04,2.04-3.41s-.14-2.73-.97-3.85Zm-.02,3.71c-.16,1.1-.75,2.08-1.65,2.75-1.85,1.37-4.48.98-5.85-.87-.67-.9-.94-2-.78-3.11.16-1.1.75-2.08,1.64-2.74.73-.55,1.6-.83,2.49-.83.21,0,.41.01.62.05,1.11.16,2.08.74,2.75,1.64.67.9.94,2,.78,3.11Z"/>
      <path class="cls-1" d="m103.6,201.91c-.82-1.11-2.03-1.84-3.4-2.04s-2.74.14-3.85.97c-1.11.82-1.84,2.03-2.04,3.4-.18,1.2.09,2.39.7,3.41L0,275.97v1.24l95.59-68.74c1.01,1.12,2.42,1.71,3.86,1.71,1.07,0,2.15-.33,3.08-1.02,1.11-.82,1.84-2.03,2.04-3.4s-.14-2.74-.97-3.85Zm-.02,3.7c-.16,1.11-.75,2.08-1.65,2.75-1.85,1.38-4.48.99-5.85-.86-.67-.9-.95-2.01-.78-3.11.16-1.11.75-2.08,1.64-2.75.73-.54,1.6-.83,2.49-.83.21,0,.41.02.62.05,1.11.16,2.08.75,2.75,1.64.67.9.94,2.01.78,3.11Z"/>
      <path class="cls-1" d="m109.09,175.9c-1.71-2.3-4.96-2.78-7.26-1.08-2.15,1.6-2.68,4.56-1.33,6.82L0,254.06v1.23l101.08-72.83c1.01,1.12,2.42,1.71,3.85,1.71,1.08,0,2.16-.33,3.09-1.02,2.29-1.7,2.77-4.96,1.07-7.25Zm-1.67,6.45c-1.85,1.37-4.48.98-5.85-.87-1.38-1.85-.99-4.48.86-5.85,1.85-1.38,4.48-.99,5.86.86,1.37,1.85.98,4.48-.87,5.86Z"/>
      <path class="cls-1" d="m52.98,143.1c-1.71-2.3-4.96-2.78-7.26-1.08-2.15,1.6-2.68,4.56-1.33,6.82L0,180.83v1.23l44.97-32.4c1.01,1.12,2.42,1.71,3.85,1.71,1.08,0,2.16-.33,3.09-1.02,2.29-1.7,2.77-4.96,1.07-7.25Zm-1.67,6.45c-1.85,1.37-4.48.98-5.85-.87-1.38-1.85-.99-4.48.86-5.85,1.85-1.38,4.48-.99,5.86.86,1.37,1.85.98,4.48-.87,5.86Z"/>
      <path class="cls-1" d="m160.07,289.76c-1.7-2.3-4.96-2.78-7.25-1.07-1.11.82-1.84,2.03-2.04,3.4h0s-11.67-.56-11.67-.56L0,391.38v1.24l139.41-100.07,11.32.55c.05,1.02.39,2,1.02,2.84,1.01,1.37,2.58,2.09,4.16,2.09,1.08,0,2.16-.33,3.09-1.02,2.29-1.7,2.78-4.95,1.07-7.25Zm-1.67,6.45c-1.85,1.38-4.48.99-5.85-.86-.67-.9-.95-2.01-.78-3.11.16-1.11.75-2.08,1.64-2.75.75-.56,1.63-.82,2.49-.82,1.28,0,2.55.58,3.37,1.69,1.37,1.85.99,4.48-.87,5.85Z"/>
      <path class="cls-1" d="m199.46,283.86c-.83-1.11-2.04-1.84-3.41-2.04-1.37-.2-2.74.14-3.85.97-2.16,1.6-2.69,4.56-1.33,6.82l-39.91,29.63-24.37-3.6-.2-.03L8.44,400h1.72l116.48-83.34,24.58,3.63,40.23-29.86c1.01,1.11,2.42,1.7,3.85,1.7,1.07,0,2.16-.33,3.08-1.01,2.3-1.71,2.78-4.96,1.08-7.26Zm-1.67,6.45c-1.85,1.38-4.48.99-5.86-.86-1.37-1.86-.99-4.48.87-5.86.73-.54,1.59-.82,2.48-.82.21,0,.42.01.62.04,1.11.16,2.09.75,2.75,1.65,1.38,1.85.99,4.48-.86,5.85Z"/>
      <path class="cls-1" d="m229.48,324.3c-.83-1.11-2.04-1.84-3.41-2.04-1.37-.2-2.73.14-3.85.97-2.15,1.6-2.68,4.56-1.33,6.82l-39.91,29.63-24.37-3.6-.2-.03-61.43,43.95h1.72l59.96-42.9,24.59,3.63,40.22-29.87c1.01,1.12,2.42,1.71,3.85,1.71,1.08,0,2.16-.33,3.09-1.02,2.29-1.7,2.77-4.96,1.07-7.25Zm-1.67,6.45c-1.85,1.38-4.48.99-5.86-.86-1.37-1.86-.98-4.48.87-5.86.73-.54,1.59-.83,2.49-.83.2,0,.41.02.62.05,1.1.16,2.08.75,2.74,1.65,1.38,1.85.99,4.47-.86,5.85Z"/>
      <path class="cls-1" d="m123.74,240.83c-1.7-2.3-4.96-2.78-7.25-1.07-1.11.82-1.84,2.03-2.04,3.4s.14,2.74.97,3.85c.63.86,1.49,1.46,2.43,1.79l-2.75,10.99L0,342.42v1.23l115.83-83.15.15-.11,2.84-11.35c.25.04.51.06.77.06,1.07,0,2.16-.33,3.08-1.02,2.3-1.7,2.78-4.96,1.07-7.25Zm-1.66,6.45c-1.86,1.38-4.48.99-5.86-.86-.67-.9-.94-2.01-.78-3.11.16-1.11.75-2.08,1.65-2.75.74-.56,1.62-.82,2.49-.82,1.28,0,2.54.58,3.36,1.68,1.38,1.86.99,4.48-.86,5.86Z"/>
      <path class="cls-1" d="m66.11,173.59c-1.71-2.29-4.96-2.77-7.26-1.07-1.11.83-1.83,2.04-2.04,3.41-.2,1.37.14,2.73.97,3.85.62.84,1.47,1.45,2.43,1.79l-2.75,10.99L0,233.81v1.23l58.2-41.78.14-.1,2.84-11.35c.26.04.52.06.77.06,1.11,0,2.18-.35,3.08-1.02,2.3-1.71,2.78-4.96,1.08-7.26Zm-1.67,6.46c-.9.66-2,.94-3.11.78-1.1-.17-2.08-.75-2.75-1.65-.66-.9-.94-2-.78-3.11.17-1.1.75-2.08,1.65-2.74.75-.56,1.62-.83,2.49-.83,1.28,0,2.54.59,3.36,1.69,1.38,1.85.99,4.48-.86,5.86Z"/>
      <path class="cls-1" d="m26.11,128.55c-1.71-2.29-4.96-2.77-7.26-1.07-1.11.83-1.83,2.04-2.04,3.41-.2,1.37.14,2.73.97,3.85.62.84,1.47,1.45,2.43,1.79l-2.75,10.99L0,160.05v1.24l18.2-13.07.14-.1,2.84-11.35c.26.04.52.06.77.06,1.11,0,2.18-.35,3.08-1.02,2.3-1.71,2.78-4.96,1.08-7.26Zm-1.67,6.46c-.9.66-2,.94-3.11.78-1.1-.17-2.08-.75-2.75-1.65-.66-.9-.94-2-.78-3.11.17-1.1.75-2.08,1.65-2.74.75-.56,1.62-.83,2.49-.83,1.28,0,2.54.59,3.36,1.69,1.38,1.85.99,4.48-.86,5.86Z"/>
      <path class="cls-1" d="m219.98,382.63c-1.71-2.3-4.96-2.78-7.26-1.08-2.15,1.6-2.68,4.56-1.33,6.82l-16.14,11.63h1.72l15-10.81c1.01,1.12,2.42,1.71,3.85,1.71,1.08,0,2.16-.33,3.09-1.02,2.29-1.7,2.77-4.96,1.07-7.25Zm-1.67,6.45c-1.85,1.37-4.48.98-5.85-.87-1.38-1.85-.99-4.48.86-5.85,1.85-1.38,4.48-.99,5.86.86,1.37,1.85.98,4.48-.87,5.86Z"/>
      <path class="cls-1" d="m254.09,388.1c-1.71-2.3-4.96-2.78-7.26-1.08-2.15,1.6-2.68,4.56-1.33,6.82l-8.55,6.16h1.72l7.41-5.34c1.01,1.12,2.42,1.71,3.85,1.71,1.08,0,2.16-.33,3.09-1.02,2.29-1.7,2.77-4.96,1.07-7.25Zm-1.67,6.45c-1.85,1.37-4.48.98-5.85-.87-1.38-1.85-.99-4.48.86-5.85,1.85-1.38,4.48-.99,5.86.86,1.37,1.85.98,4.48-.87,5.86Z"/>
      <path class="cls-1" d="m193.11,368.09c-1.71-2.29-4.96-2.77-7.26-1.07-1.11.83-1.83,2.04-2.04,3.41-.2,1.37.14,2.73.97,3.85.62.84,1.47,1.45,2.43,1.79l-2.75,10.99-18.03,12.94h1.72l17.05-12.24.14-.1,2.84-11.35c.26.04.52.06.77.06,1.11,0,2.18-.35,3.08-1.02,2.3-1.71,2.78-4.96,1.08-7.26Zm-1.67,6.46c-.9.66-2,.94-3.11.78-1.1-.17-2.08-.75-2.75-1.65-.66-.9-.94-2-.78-3.11.17-1.1.75-2.08,1.65-2.74.75-.56,1.62-.83,2.49-.83,1.28,0,2.54.59,3.36,1.69,1.38,1.85.99,4.48-.86,5.86Z"/>
      <path class="cls-1" d="m138.01,201.1c-.82-1.11-2.03-1.83-3.4-2.04-1.36-.2-2.74.14-3.85.97-1.11.83-1.84,2.03-2.04,3.4-.18,1.21.09,2.4.71,3.42l-39.3,29.18-4.28,25.66L0,323.11v1.23l86.6-61.96.16-.12,4.29-25.67,38.96-28.92c1.01,1.11,2.42,1.71,3.85,1.71,1.07,0,2.15-.34,3.08-1.02,1.11-.83,1.84-2.04,2.04-3.41.2-1.37-.14-2.74-.97-3.85Zm-.02,3.71c-.16,1.1-.75,2.08-1.64,2.74-1.86,1.38-4.48.99-5.86-.86-.67-.9-.94-2-.78-3.11.16-1.1.75-2.08,1.65-2.75.73-.54,1.59-.82,2.48-.82.21,0,.42,0,.62.04,1.11.17,2.08.75,2.75,1.65.67.9.94,2,.78,3.11Z"/>
    </g>
    <g>
      <path class="cls-1" d="m428.5,147.9c1.71,2.3,4.96,2.77,7.25,1.07,2.16-1.6,2.69-4.56,1.34-6.81l162.91-117.44v-1.24l-163.51,117.87c-.8-.89-1.86-1.49-3.07-1.67-.25-.04-.51-.06-.77-.06-1.1,0-2.17.36-3.08,1.03-2.29,1.7-2.77,4.95-1.07,7.25Zm1.67-6.45c.9-.67,2-.94,3.11-.78,1.1.16,2.08.75,2.74,1.64,1.38,1.86.99,4.48-.86,5.86-.75.56-1.62.82-2.49.82-1.28,0-2.55-.58-3.37-1.69-1.37-1.85-.98-4.48.87-5.85Z"/>
      <path class="cls-1" d="m461.58,139.4c.82,1.11,2.03,1.84,3.4,2.04s2.74-.14,3.85-.97c1.11-.82,1.84-2.03,2.04-3.4.18-1.2-.09-2.39-.7-3.42l129.83-93.29v-1.22l-130.41,93.7c-1.01-1.12-2.43-1.72-3.86-1.72-1.07,0-2.15.34-3.08,1.02-1.11.83-1.84,2.04-2.04,3.41-.2,1.37.14,2.74.97,3.85Zm.02-3.7c.16-1.11.75-2.09,1.65-2.75,1.85-1.38,4.47-.99,5.85.86.67.9.94,2,.78,3.11-.16,1.11-.75,2.08-1.65,2.75-.73.54-1.59.82-2.48.82-.21,0-.42,0-.62-.04-1.11-.16-2.08-.75-2.75-1.65-.67-.89-.94-2-.78-3.1Z"/>
      <path class="cls-1" d="m470.35,68.69c1.7,2.3,4.96,2.78,7.25,1.07,2.16-1.6,2.69-4.56,1.34-6.81L567.15,0h-1.73l-87.06,62.13c-1.01-1.12-2.42-1.71-3.85-1.71-1.08,0-2.16.33-3.09,1.02-2.29,1.7-2.77,4.95-1.07,7.25Zm1.67-6.45c1.85-1.38,4.48-.99,5.85.86,1.38,1.86.99,4.48-.86,5.86-.75.56-1.62.82-2.49.82-1.28,0-2.55-.58-3.37-1.69-1.37-1.85-.98-4.48.87-5.85Z"/>
      <path class="cls-1" d="m436.14,22.61c1.7,2.3,4.96,2.78,7.25,1.07,1.11-.82,1.84-2.03,2.04-3.4.18-1.2-.09-2.39-.7-3.41L468.37,0h-1.74l-22.5,16.06c-.8-.89-1.86-1.49-3.07-1.67-.26-.04-.51-.06-.77-.06-1.1,0-2.17.35-3.08,1.03-1.11.82-1.83,2.03-2.04,3.4-.2,1.37.14,2.74.97,3.85Zm.02-3.7c.17-1.11.75-2.09,1.65-2.75.9-.67,2-.95,3.1-.78,1.11.16,2.09.75,2.75,1.64.67.9.95,2,.78,3.11-.16,1.11-.75,2.08-1.64,2.75-.75.55-1.63.82-2.49.82-1.28,0-2.55-.58-3.37-1.69-.66-.89-.94-2-.78-3.1Z"/>
      <path class="cls-1" d="m413.34,86.22c.83,1.11,2.04,1.83,3.41,2.03,1.36.21,2.73-.13,3.84-.96,2.16-1.6,2.69-4.56,1.34-6.82L533.84,0h-1.72l-110.79,79.67c-.8-.9-1.86-1.5-3.07-1.67-.26-.04-.51-.06-.77-.06-1.1,0-2.17.35-3.08,1.02-1.11.83-1.83,2.04-2.04,3.41-.2,1.37.14,2.73.97,3.85Zm.02-3.71c.17-1.1.75-2.08,1.65-2.74.9-.67,2-.95,3.11-.78,1.1.16,2.08.74,2.74,1.64,1.38,1.85.99,4.48-.86,5.86-.73.54-1.6.82-2.49.82-.2,0-.41-.01-.62-.04-1.1-.17-2.08-.75-2.75-1.65-.66-.9-.94-2-.78-3.11Z"/>
      <path class="cls-1" d="m529.67,148.59c.83,1.11,2.03,1.84,3.4,2.04s2.74-.14,3.85-.97c1.12-.82,1.84-2.03,2.04-3.4.18-1.2-.08-2.39-.7-3.41l61.74-44.06v-1.24l-62.32,44.48c-1.01-1.12-2.42-1.71-3.85-1.71-1.08,0-2.16.33-3.09,1.02-1.11.82-1.83,2.03-2.04,3.4-.2,1.37.14,2.74.97,3.85Zm.02-3.7c.17-1.11.75-2.08,1.65-2.75,1.85-1.38,4.48-.99,5.85.86.67.9.95,2.01.78,3.11-.16,1.11-.75,2.08-1.64,2.75-.73.54-1.6.83-2.49.83-.21,0-.41-.02-.62-.05-1.1-.16-2.08-.75-2.75-1.65-.66-.89-.94-2-.78-3.1Z"/>
      <path class="cls-1" d="m567.09,221.41c.82,1.11,2.03,1.83,3.4,2.03,1.37.21,2.74-.14,3.85-.96,1.11-.83,1.84-2.04,2.04-3.41.18-1.2-.09-2.38-.7-3.41l24.32-17.36v-1.22l-24.9,17.77c-1.01-1.12-2.42-1.72-3.86-1.72-1.07,0-2.15.33-3.08,1.02-1.11.83-1.84,2.04-2.04,3.41s.14,2.73.97,3.85Zm.02-3.71c.16-1.1.75-2.08,1.65-2.75,1.85-1.37,4.48-.98,5.85.87.67.9.94,2,.78,3.11-.16,1.1-.75,2.08-1.64,2.74-.73.55-1.6.83-2.49.83-.21,0-.41-.01-.62-.05-1.11-.16-2.08-.74-2.75-1.64-.67-.9-.94-2-.78-3.11Z"/>
      <path class="cls-1" d="m496.4,198.09c.82,1.11,2.03,1.84,3.4,2.04s2.74-.14,3.85-.97c1.11-.82,1.84-2.03,2.04-3.4.18-1.2-.09-2.39-.7-3.41l95.01-68.32v-1.24l-95.59,68.74c-1.01-1.12-2.42-1.71-3.86-1.71-1.07,0-2.15.33-3.08,1.02-1.11.82-1.84,2.03-2.04,3.4s.14,2.74.97,3.85Zm.02-3.7c.16-1.11.75-2.08,1.65-2.75,1.85-1.38,4.48-.99,5.85.86.67.9.95,2.01.78,3.11-.16,1.11-.75,2.08-1.64,2.75-.73.54-1.6.83-2.49.83-.21,0-.41-.02-.62-.05-1.11-.16-2.08-.75-2.75-1.64-.67-.9-.94-2.01-.78-3.11Z"/>
      <path class="cls-1" d="m490.91,224.1c1.71,2.3,4.96,2.78,7.26,1.08,2.15-1.6,2.68-4.56,1.33-6.82l100.5-72.42v-1.23l-101.08,72.83c-1.01-1.12-2.42-1.71-3.85-1.71-1.08,0-2.16.33-3.09,1.02-2.29,1.7-2.77,4.96-1.07,7.25Zm1.67-6.45c1.85-1.37,4.48-.98,5.85.87,1.38,1.85.99,4.48-.86,5.85-1.85,1.38-4.48.99-5.86-.86-1.37-1.85-.98-4.48.87-5.86Z"/>
      <path class="cls-1" d="m439.93,110.24c1.7,2.3,4.96,2.78,7.25,1.07,1.11-.82,1.84-2.03,2.04-3.4h0s11.67.56,11.67.56L600,8.62v-1.24l-139.41,100.07-11.32-.55c-.05-1.02-.39-2-1.02-2.84-1.01-1.37-2.58-2.09-4.16-2.09-1.08,0-2.16.33-3.09,1.02-2.29,1.7-2.78,4.95-1.07,7.25Zm1.67-6.45c1.85-1.38,4.48-.99,5.85.86.67.9.95,2.01.78,3.11-.16,1.11-.75,2.08-1.64,2.75-.75.56-1.63.82-2.49.82-1.28,0-2.55-.58-3.37-1.69-1.37-1.85-.99-4.48.87-5.85Z"/>
      <path class="cls-1" d="m400.54,116.14c.83,1.11,2.04,1.84,3.41,2.04,1.37.2,2.74-.14,3.85-.97,2.16-1.6,2.69-4.56,1.33-6.82l39.91-29.63,24.37,3.6.2.03L591.56,0h-1.72l-116.48,83.34-24.58-3.63-40.23,29.86c-1.01-1.11-2.42-1.7-3.85-1.7-1.07,0-2.16.33-3.08,1.01-2.3,1.71-2.78,4.96-1.08,7.26Zm1.67-6.45c1.85-1.38,4.48-.99,5.86.86,1.37,1.86.99,4.48-.87,5.86-.73.54-1.59.82-2.48.82-.21,0-.42-.01-.62-.04-1.11-.16-2.09-.75-2.75-1.65-1.38-1.85-.99-4.48.86-5.85Z"/>
      <path class="cls-1" d="m370.52,75.7c.83,1.11,2.04,1.84,3.41,2.04,1.37.2,2.73-.14,3.85-.97,2.15-1.6,2.68-4.56,1.33-6.82l39.91-29.63,24.37,3.6.2.03L505.02,0h-1.72l-59.96,42.9-24.59-3.63-40.22,29.87c-1.01-1.12-2.42-1.71-3.85-1.71-1.08,0-2.16.33-3.09,1.02-2.29,1.7-2.77,4.96-1.07,7.25Zm1.67-6.45c1.85-1.38,4.48-.99,5.86.86,1.37,1.86.98,4.48-.87,5.86-.73.54-1.59.83-2.49.83-.2,0-.41-.02-.62-.05-1.1-.16-2.08-.75-2.74-1.65-1.38-1.85-.99-4.47.86-5.85Z"/>
      <path class="cls-1" d="m476.26,159.17c1.7,2.3,4.96,2.78,7.25,1.07,1.11-.82,1.84-2.03,2.04-3.4s-.14-2.74-.97-3.85c-.63-.86-1.49-1.46-2.43-1.79l2.75-10.99,115.1-82.63v-1.23l-115.83,83.15-.15.11-2.84,11.35c-.25-.04-.51-.06-.77-.06-1.07,0-2.16.33-3.08,1.02-2.3,1.7-2.78,4.96-1.07,7.25Zm1.66-6.45c1.86-1.38,4.48-.99,5.86.86.67.9.94,2.01.78,3.11-.16,1.11-.75,2.08-1.65,2.75-.74.56-1.62.82-2.49.82-1.28,0-2.54-.58-3.36-1.68-1.38-1.86-.99-4.48.86-5.86Z"/>
      <path class="cls-1" d="m533.89,226.41c1.71,2.29,4.96,2.77,7.26,1.07,1.11-.83,1.83-2.04,2.04-3.41.2-1.37-.14-2.73-.97-3.85-.62-.84-1.47-1.45-2.43-1.79l2.75-10.99,57.46-41.25v-1.23l-58.2,41.78-.14.1-2.84,11.35c-.26-.04-.52-.06-.77-.06-1.11,0-2.18.35-3.08,1.02-2.3,1.71-2.78,4.96-1.08,7.26Zm1.67-6.46c.9-.66,2-.94,3.11-.78,1.1.17,2.08.75,2.75,1.65.66.9.94,2,.78,3.11-.17,1.1-.75,2.08-1.65,2.74-.75.56-1.62.83-2.49.83-1.28,0-2.54-.59-3.36-1.69-1.38-1.85-.99-4.48.86-5.86Z"/>
      <path class="cls-1" d="m461.99,198.9c.82,1.11,2.03,1.83,3.4,2.04,1.36.2,2.74-.14,3.85-.97,1.11-.83,1.84-2.03,2.04-3.4.18-1.21-.09-2.4-.71-3.42l39.3-29.18,4.28-25.66,85.85-61.42v-1.23l-86.6,61.96-.16.12-4.29,25.67-38.96,28.92c-1.01-1.11-2.42-1.71-3.85-1.71-1.07,0-2.15.34-3.08,1.02-1.11.83-1.84,2.04-2.04,3.41-.2,1.37.14,2.74.97,3.85Zm.02-3.71c.16-1.1.75-2.08,1.64-2.74,1.86-1.38,4.48-.99,5.86.86.67.9.94,2,.78,3.11-.16,1.1-.75,2.08-1.65,2.75-.73.54-1.59.82-2.48.82-.21,0-.42,0-.62-.04-1.11-.17-2.08-.75-2.75-1.65-.67-.9-.94-2-.78-3.11Z"/>
      <path class="cls-1" d="m428.5,147.9c1.71,2.3,4.96,2.77,7.25,1.07,2.16-1.6,2.69-4.56,1.34-6.81l162.91-117.44v-1.24l-163.51,117.87c-.8-.89-1.86-1.49-3.07-1.67-.25-.04-.51-.06-.77-.06-1.1,0-2.17.36-3.08,1.03-2.29,1.7-2.77,4.95-1.07,7.25Zm1.67-6.45c.9-.67,2-.94,3.11-.78,1.1.16,2.08.75,2.74,1.64,1.38,1.86.99,4.48-.86,5.86-.75.56-1.62.82-2.49.82-1.28,0-2.55-.58-3.37-1.69-1.37-1.85-.98-4.48.87-5.85Z"/>
      <path class="cls-1" d="m461.58,139.4c.82,1.11,2.03,1.84,3.4,2.04s2.74-.14,3.85-.97c1.11-.82,1.84-2.03,2.04-3.4.18-1.2-.09-2.39-.7-3.42l129.83-93.29v-1.22l-130.41,93.7c-1.01-1.12-2.43-1.72-3.86-1.72-1.07,0-2.15.34-3.08,1.02-1.11.83-1.84,2.04-2.04,3.41-.2,1.37.14,2.74.97,3.85Zm.02-3.7c.16-1.11.75-2.09,1.65-2.75,1.85-1.38,4.47-.99,5.85.86.67.9.94,2,.78,3.11-.16,1.11-.75,2.08-1.65,2.75-.73.54-1.59.82-2.48.82-.21,0-.42,0-.62-.04-1.11-.16-2.08-.75-2.75-1.65-.67-.89-.94-2-.78-3.1Z"/>
      <path class="cls-1" d="m470.35,68.69c1.7,2.3,4.96,2.78,7.25,1.07,2.16-1.6,2.69-4.56,1.34-6.81L567.15,0h-1.73l-87.06,62.13c-1.01-1.12-2.42-1.71-3.85-1.71-1.08,0-2.16.33-3.09,1.02-2.29,1.7-2.77,4.95-1.07,7.25Zm1.67-6.45c1.85-1.38,4.48-.99,5.85.86,1.38,1.86.99,4.48-.86,5.86-.75.56-1.62.82-2.49.82-1.28,0-2.55-.58-3.37-1.69-1.37-1.85-.98-4.48.87-5.85Z"/>
      <path class="cls-1" d="m436.14,22.61c1.7,2.3,4.96,2.78,7.25,1.07,1.11-.82,1.84-2.03,2.04-3.4.18-1.2-.09-2.39-.7-3.41L468.37,0h-1.74l-22.5,16.06c-.8-.89-1.86-1.49-3.07-1.67-.26-.04-.51-.06-.77-.06-1.1,0-2.17.35-3.08,1.03-1.11.82-1.83,2.03-2.04,3.4-.2,1.37.14,2.74.97,3.85Zm.02-3.7c.17-1.11.75-2.09,1.65-2.75.9-.67,2-.95,3.1-.78,1.11.16,2.09.75,2.75,1.64.67.9.95,2,.78,3.11-.16,1.11-.75,2.08-1.64,2.75-.75.55-1.63.82-2.49.82-1.28,0-2.55-.58-3.37-1.69-.66-.89-.94-2-.78-3.1Z"/>
      <path class="cls-1" d="m413.34,86.22c.83,1.11,2.04,1.83,3.41,2.03,1.36.21,2.73-.13,3.84-.96,2.16-1.6,2.69-4.56,1.34-6.82L533.84,0h-1.72l-110.79,79.67c-.8-.9-1.86-1.5-3.07-1.67-.26-.04-.51-.06-.77-.06-1.1,0-2.17.35-3.08,1.02-1.11.83-1.83,2.04-2.04,3.41-.2,1.37.14,2.73.97,3.85Zm.02-3.71c.17-1.1.75-2.08,1.65-2.74.9-.67,2-.95,3.11-.78,1.1.16,2.08.74,2.74,1.64,1.38,1.85.99,4.48-.86,5.86-.73.54-1.6.82-2.49.82-.2,0-.41-.01-.62-.04-1.1-.17-2.08-.75-2.75-1.65-.66-.9-.94-2-.78-3.11Z"/>
      <path class="cls-1" d="m529.67,148.59c.83,1.11,2.03,1.84,3.4,2.04s2.74-.14,3.85-.97c1.12-.82,1.84-2.03,2.04-3.4.18-1.2-.08-2.39-.7-3.41l61.74-44.06v-1.24l-62.32,44.48c-1.01-1.12-2.42-1.71-3.85-1.71-1.08,0-2.16.33-3.09,1.02-1.11.82-1.83,2.03-2.04,3.4-.2,1.37.14,2.74.97,3.85Zm.02-3.7c.17-1.11.75-2.08,1.65-2.75,1.85-1.38,4.48-.99,5.85.86.67.9.95,2.01.78,3.11-.16,1.11-.75,2.08-1.64,2.75-.73.54-1.6.83-2.49.83-.21,0-.41-.02-.62-.05-1.1-.16-2.08-.75-2.75-1.65-.66-.89-.94-2-.78-3.1Z"/>
      <path class="cls-1" d="m567.09,221.41c.82,1.11,2.03,1.83,3.4,2.03,1.37.21,2.74-.14,3.85-.96,1.11-.83,1.84-2.04,2.04-3.41.18-1.2-.09-2.38-.7-3.41l24.32-17.36v-1.22l-24.9,17.77c-1.01-1.12-2.42-1.72-3.86-1.72-1.07,0-2.15.33-3.08,1.02-1.11.83-1.84,2.04-2.04,3.41s.14,2.73.97,3.85Zm.02-3.71c.16-1.1.75-2.08,1.65-2.75,1.85-1.37,4.48-.98,5.85.87.67.9.94,2,.78,3.11-.16,1.1-.75,2.08-1.64,2.74-.73.55-1.6.83-2.49.83-.21,0-.41-.01-.62-.05-1.11-.16-2.08-.74-2.75-1.64-.67-.9-.94-2-.78-3.11Z"/>
      <path class="cls-1" d="m496.4,198.09c.82,1.11,2.03,1.84,3.4,2.04s2.74-.14,3.85-.97c1.11-.82,1.84-2.03,2.04-3.4.18-1.2-.09-2.39-.7-3.41l95.01-68.32v-1.24l-95.59,68.74c-1.01-1.12-2.42-1.71-3.86-1.71-1.07,0-2.15.33-3.08,1.02-1.11.82-1.84,2.03-2.04,3.4s.14,2.74.97,3.85Zm.02-3.7c.16-1.11.75-2.08,1.65-2.75,1.85-1.38,4.48-.99,5.85.86.67.9.95,2.01.78,3.11-.16,1.11-.75,2.08-1.64,2.75-.73.54-1.6.83-2.49.83-.21,0-.41-.02-.62-.05-1.11-.16-2.08-.75-2.75-1.64-.67-.9-.94-2.01-.78-3.11Z"/>
      <path class="cls-1" d="m490.91,224.1c1.71,2.3,4.96,2.78,7.26,1.08,2.15-1.6,2.68-4.56,1.33-6.82l100.5-72.42v-1.23l-101.08,72.83c-1.01-1.12-2.42-1.71-3.85-1.71-1.08,0-2.16.33-3.09,1.02-2.29,1.7-2.77,4.96-1.07,7.25Zm1.67-6.45c1.85-1.37,4.48-.98,5.85.87,1.38,1.85.99,4.48-.86,5.85-1.85,1.38-4.48.99-5.86-.86-1.37-1.85-.98-4.48.87-5.86Z"/>
      <path class="cls-1" d="m547.02,256.9c1.71,2.3,4.96,2.78,7.26,1.08,2.15-1.6,2.68-4.56,1.33-6.82l44.39-31.99v-1.23l-44.97,32.4c-1.01-1.12-2.42-1.71-3.85-1.71-1.08,0-2.16.33-3.09,1.02-2.29,1.7-2.77,4.96-1.07,7.25Zm1.67-6.45c1.85-1.37,4.48-.98,5.85.87,1.38,1.85.99,4.48-.86,5.85-1.85,1.38-4.48.99-5.86-.86-1.37-1.85-.98-4.48.87-5.86Z"/>
      <path class="cls-1" d="m439.93,110.24c1.7,2.3,4.96,2.78,7.25,1.07,1.11-.82,1.84-2.03,2.04-3.4h0s11.67.56,11.67.56L600,8.62v-1.24l-139.41,100.07-11.32-.55c-.05-1.02-.39-2-1.02-2.84-1.01-1.37-2.58-2.09-4.16-2.09-1.08,0-2.16.33-3.09,1.02-2.29,1.7-2.78,4.95-1.07,7.25Zm1.67-6.45c1.85-1.38,4.48-.99,5.85.86.67.9.95,2.01.78,3.11-.16,1.11-.75,2.08-1.64,2.75-.75.56-1.63.82-2.49.82-1.28,0-2.55-.58-3.37-1.69-1.37-1.85-.99-4.48.87-5.85Z"/>
      <path class="cls-1" d="m400.54,116.14c.83,1.11,2.04,1.84,3.41,2.04,1.37.2,2.74-.14,3.85-.97,2.16-1.6,2.69-4.56,1.33-6.82l39.91-29.63,24.37,3.6.2.03L591.56,0h-1.72l-116.48,83.34-24.58-3.63-40.23,29.86c-1.01-1.11-2.42-1.7-3.85-1.7-1.07,0-2.16.33-3.08,1.01-2.3,1.71-2.78,4.96-1.08,7.26Zm1.67-6.45c1.85-1.38,4.48-.99,5.86.86,1.37,1.86.99,4.48-.87,5.86-.73.54-1.59.82-2.48.82-.21,0-.42-.01-.62-.04-1.11-.16-2.09-.75-2.75-1.65-1.38-1.85-.99-4.48.86-5.85Z"/>
      <path class="cls-1" d="m370.52,75.7c.83,1.11,2.04,1.84,3.41,2.04,1.37.2,2.73-.14,3.85-.97,2.15-1.6,2.68-4.56,1.33-6.82l39.91-29.63,24.37,3.6.2.03L505.02,0h-1.72l-59.96,42.9-24.59-3.63-40.22,29.87c-1.01-1.12-2.42-1.71-3.85-1.71-1.08,0-2.16.33-3.09,1.02-2.29,1.7-2.77,4.96-1.07,7.25Zm1.67-6.45c1.85-1.38,4.48-.99,5.86.86,1.37,1.86.98,4.48-.87,5.86-.73.54-1.59.83-2.49.83-.2,0-.41-.02-.62-.05-1.1-.16-2.08-.75-2.74-1.65-1.38-1.85-.99-4.47.86-5.85Z"/>
      <path class="cls-1" d="m476.26,159.17c1.7,2.3,4.96,2.78,7.25,1.07,1.11-.82,1.84-2.03,2.04-3.4s-.14-2.74-.97-3.85c-.63-.86-1.49-1.46-2.43-1.79l2.75-10.99,115.1-82.63v-1.23l-115.83,83.15-.15.11-2.84,11.35c-.25-.04-.51-.06-.77-.06-1.07,0-2.16.33-3.08,1.02-2.3,1.7-2.78,4.96-1.07,7.25Zm1.66-6.45c1.86-1.38,4.48-.99,5.86.86.67.9.94,2.01.78,3.11-.16,1.11-.75,2.08-1.65,2.75-.74.56-1.62.82-2.49.82-1.28,0-2.54-.58-3.36-1.68-1.38-1.86-.99-4.48.86-5.86Z"/>
      <path class="cls-1" d="m533.89,226.41c1.71,2.29,4.96,2.77,7.26,1.07,1.11-.83,1.83-2.04,2.04-3.41.2-1.37-.14-2.73-.97-3.85-.62-.84-1.47-1.45-2.43-1.79l2.75-10.99,57.46-41.25v-1.23l-58.2,41.78-.14.1-2.84,11.35c-.26-.04-.52-.06-.77-.06-1.11,0-2.18.35-3.08,1.02-2.3,1.71-2.78,4.96-1.08,7.26Zm1.67-6.46c.9-.66,2-.94,3.11-.78,1.1.17,2.08.75,2.75,1.65.66.9.94,2,.78,3.11-.17,1.1-.75,2.08-1.65,2.74-.75.56-1.62.83-2.49.83-1.28,0-2.54-.59-3.36-1.69-1.38-1.85-.99-4.48.86-5.86Z"/>
      <path class="cls-1" d="m573.89,271.45c1.71,2.29,4.96,2.77,7.26,1.07,1.11-.83,1.83-2.04,2.04-3.41.2-1.37-.14-2.73-.97-3.85-.62-.84-1.47-1.45-2.43-1.79l2.75-10.99,17.46-12.53v-1.24l-18.2,13.07-.14.1-2.84,11.35c-.26-.04-.52-.06-.77-.06-1.11,0-2.18.35-3.08,1.02-2.3,1.71-2.78,4.96-1.08,7.26Zm1.67-6.46c.9-.66,2-.94,3.11-.78,1.1.17,2.08.75,2.75,1.65.66.9.94,2,.78,3.11-.17,1.1-.75,2.08-1.65,2.74-.75.56-1.62.83-2.49.83-1.28,0-2.54-.59-3.36-1.69-1.38-1.85-.99-4.48.86-5.86Z"/>
      <path class="cls-1" d="m380.02,17.37c1.71,2.3,4.96,2.78,7.26,1.08,2.15-1.6,2.68-4.56,1.33-6.82l16.14-11.63h-1.72l-15,10.81c-1.01-1.12-2.42-1.71-3.85-1.71-1.08,0-2.16.33-3.09,1.02-2.29,1.7-2.77,4.96-1.07,7.25Zm1.67-6.45c1.85-1.37,4.48-.98,5.85.87,1.38,1.85.99,4.48-.86,5.85-1.85,1.38-4.48.99-5.86-.86-1.37-1.85-.98-4.48.87-5.86Z"/>
      <path class="cls-1" d="m345.91,11.9c1.71,2.3,4.96,2.78,7.26,1.08,2.15-1.6,2.68-4.56,1.33-6.82l8.55-6.16h-1.72l-7.41,5.34c-1.01-1.12-2.42-1.71-3.85-1.71-1.08,0-2.16.33-3.09,1.02-2.29,1.7-2.77,4.96-1.07,7.25Zm1.67-6.45c1.85-1.37,4.48-.98,5.85.87,1.38,1.85.99,4.48-.86,5.85-1.85,1.38-4.48.99-5.86-.86-1.37-1.85-.98-4.48.87-5.86Z"/>
      <path class="cls-1" d="m406.89,31.91c1.71,2.29,4.96,2.77,7.26,1.07,1.11-.83,1.83-2.04,2.04-3.41.2-1.37-.14-2.73-.97-3.85-.62-.84-1.47-1.45-2.43-1.79l2.75-10.99,18.03-12.94h-1.72l-17.05,12.24-.14.1-2.84,11.35c-.26-.04-.52-.06-.77-.06-1.11,0-2.18.35-3.08,1.02-2.3,1.71-2.78,4.96-1.08,7.26Zm1.67-6.46c.9-.66,2-.94,3.11-.78,1.1.17,2.08.75,2.75,1.65.66.9.94,2,.78,3.11-.17,1.1-.75,2.08-1.65,2.74-.75.56-1.62.83-2.49.83-1.28,0-2.54-.59-3.36-1.69-1.38-1.85-.99-4.48.86-5.86Z"/>
      <path class="cls-1" d="m461.99,198.9c.82,1.11,2.03,1.83,3.4,2.04,1.36.2,2.74-.14,3.85-.97,1.11-.83,1.84-2.03,2.04-3.4.18-1.21-.09-2.4-.71-3.42l39.3-29.18,4.28-25.66,85.85-61.42v-1.23l-86.6,61.96-.16.12-4.29,25.67-38.96,28.92c-1.01-1.11-2.42-1.71-3.85-1.71-1.07,0-2.15.34-3.08,1.02-1.11.83-1.84,2.04-2.04,3.41-.2,1.37.14,2.74.97,3.85Zm.02-3.71c.16-1.1.75-2.08,1.64-2.74,1.86-1.38,4.48-.99,5.86.86.67.9.94,2,.78,3.11-.16,1.1-.75,2.08-1.65,2.75-.73.54-1.59.82-2.48.82-.21,0-.42,0-.62-.04-1.11-.17-2.08-.75-2.75-1.65-.67-.9-.94-2-.78-3.11Z"/>
    </g>
  </g>
</svg>